<?xml version="1.0" standalone="no"?>
<!DOCTYPE svg PUBLIC "-//W3C//DTD SVG 20010904//EN"
 "http://www.w3.org/TR/2001/REC-SVG-20010904/DTD/svg10.dtd">
<svg version="1.0" xmlns="http://www.w3.org/2000/svg"
 width="653.000000pt" height="693.000000pt" viewBox="0 0 653.000000 693.000000"
 preserveAspectRatio="xMidYMid meet">
<metadata>
Created by potrace 1.16, written by Peter Selinger 2001-2019
</metadata>
<g transform="translate(0.000000,693.000000) scale(0.100000,-0.100000)"
fill="#000000" stroke="none">
<path d="M1630 6515 l0 -405 -200 0 -200 0 0 -405 0 -405 -205 0 -205 0 0
-405 0 -405 -202 -2 -203 -3 -3 -402 -2 -403 -198 -2 -197 -3 -3 -422 -2 -423
1215 0 1215 0 0 -387 0 -388 -185 3 c-120 2 -192 -1 -205 -8 -20 -11 -20 -17
-18 -410 l3 -400 -202 0 -203 0 0 -405 0 -405 -200 0 -200 0 0 -215 0 -215
220 0 220 0 0 195 0 195 184 0 c101 0 191 3 200 6 14 5 16 33 16 205 l0 199
203 2 202 3 0 203 0 202 203 0 202 0 0 205 0 205 205 0 205 0 0 200 0 200 200
0 200 0 0 200 0 200 203 2 202 3 3 202 2 203 203 2 202 3 0 203 0 202 203 0
202 0 0 200 0 200 200 0 200 0 0 205 0 205 205 0 205 0 0 203 0 202 202 0 203
0 0 220 0 220 -607 3 -608 2 0 180 0 180 198 2 197 3 3 203 2 202 205 0 205 0
0 205 0 205 205 0 205 0 0 205 0 205 200 0 200 0 0 215 0 215 -2450 0 -2450 0
0 -405z m428 -2242 l2 -203 195 0 195 0 2 203 3 202 205 0 205 0 3 -202 2
-203 195 0 195 0 2 203 3 202 202 3 203 2 2 -207 3 -208 208 -3 207 -2 0 -99
c0 -54 -3 -233 -7 -399 l-6 -302 -192 0 c-135 0 -195 -4 -203 -12 -9 -9 -12
-68 -12 -205 l0 -193 -200 0 -200 0 0 405 0 405 -199 0 c-123 0 -202 4 -206
10 -3 6 -7 94 -8 198 l-2 187 -193 0 -193 0 -2 -195 -2 -195 -210 0 -210 0 -1
195 -2 195 -198 5 -199 5 -3 195 c-1 107 0 200 3 207 3 11 48 13 207 11 l203
-3 3 -202z"/>
<path d="M3280 3865 l0 -195 195 0 195 0 0 195 0 195 -195 0 -195 0 0 -195z"/>
</g>
</svg>
